<svg width="1286" height="197" viewBox="0 0 1286 197" fill="none" xmlns="http://www.w3.org/2000/svg">
<path d="M56.468 13.66H143.336V23.058H141.05C137.155 23.058 133.769 23.566 130.89 24.582C128.011 25.4287 126.572 27.7147 126.572 31.44V134.564C126.572 146.248 124.879 156.069 121.492 164.028C118.105 171.987 113.364 178.421 107.268 183.332C101.341 188.073 94.2293 191.46 85.932 193.492C77.6347 195.524 68.5753 196.54 58.754 196.54C49.4407 196.54 41.0587 195.693 33.608 194C26.1573 192.137 19.638 189.851 14.05 187.142C8.63133 184.433 4.22867 181.723 0.842 179.014V147.264H37.164V184.856C34.9627 184.009 33.1847 183.078 31.83 182.062C30.6447 180.877 29.798 179.776 29.29 178.76C28.782 177.744 28.6127 176.897 28.782 176.22C29.1207 175.373 29.798 174.781 30.814 174.442C31.83 176.305 33.4387 178.083 35.64 179.776C37.8413 181.3 40.3813 182.485 43.26 183.332C46.308 184.179 49.5253 184.602 52.912 184.602C58.3307 184.602 62.818 183.417 66.374 181.046C69.93 178.675 72.6393 174.442 74.502 168.346C76.3647 162.25 77.296 153.529 77.296 142.184V31.44C77.296 28.9 76.534 27.0373 75.01 25.852C73.6553 24.6667 71.708 23.9047 69.168 23.566C66.7973 23.2273 64.0033 23.058 60.786 23.058H56.468V13.66ZM289.801 127.96C289.801 141.507 286.753 153.445 280.657 163.774C274.561 174.103 266.009 182.147 255.003 187.904C243.996 193.661 230.873 196.54 215.633 196.54C200.731 196.54 187.693 193.661 176.517 187.904C165.341 182.147 156.705 174.103 150.609 163.774C144.682 153.445 141.719 141.507 141.719 127.96C141.719 117.631 143.412 108.317 146.799 100.02C150.355 91.5533 155.35 84.272 161.785 78.176C168.389 72.08 176.178 67.3387 185.153 63.952C194.297 60.5653 204.457 58.872 215.633 58.872C226.978 58.872 237.138 60.5653 246.113 63.952C255.257 67.1693 263.046 71.9107 269.481 78.176C276.085 84.272 281.08 91.5533 284.467 100.02C288.023 108.317 289.801 117.631 289.801 127.96ZM189.471 127.96C189.471 141.507 190.402 152.598 192.265 161.234C194.297 169.701 197.26 175.881 201.155 179.776C205.049 183.671 209.875 185.618 215.633 185.618C221.559 185.618 226.47 183.671 230.365 179.776C234.259 175.881 237.138 169.701 239.001 161.234C241.033 152.598 242.049 141.422 242.049 127.706C242.049 113.99 241.033 102.899 239.001 94.432C237.138 85.796 234.259 79.5307 230.365 75.636C226.47 71.7413 221.559 69.794 215.633 69.794C209.875 69.794 205.049 71.826 201.155 75.89C197.26 79.7847 194.297 85.9653 192.265 94.432C190.402 102.899 189.471 114.075 189.471 127.96ZM326.281 42.616C318.492 42.616 312.311 40.7533 307.739 37.028C303.167 33.3027 300.881 28.138 300.881 21.534C300.881 14.93 303.167 9.84999 307.739 6.29399C312.311 2.56866 318.492 0.705991 326.281 0.705991C333.901 0.705991 339.913 2.56866 344.315 6.29399C348.887 9.84999 351.173 14.93 351.173 21.534C351.173 28.138 348.887 33.3027 344.315 37.028C339.913 40.7533 333.901 42.616 326.281 42.616ZM349.649 61.412V177.744C349.649 180.792 350.919 182.824 353.459 183.84C355.999 184.687 359.047 185.11 362.603 185.11H362.857V194H290.213V185.11H290.467C294.193 185.11 297.241 184.687 299.611 183.84C302.151 182.824 303.421 180.792 303.421 177.744V79.446C303.421 76.7367 302.575 74.874 300.881 73.858C299.188 72.842 296.479 71.9107 292.753 71.064L290.213 70.556V61.412H349.649ZM360.113 194V185.11H360.367C362.738 185.11 364.854 184.941 366.717 184.602C368.749 184.094 370.358 183.332 371.543 182.316C372.728 181.3 373.321 179.776 373.321 177.744V79.446C373.321 77.5833 372.898 76.144 372.051 75.128C371.374 74.112 370.273 73.35 368.749 72.842C367.225 72.1647 365.193 71.572 362.653 71.064L360.113 70.556V61.412H416.755V88.844L419.549 89.86V182.824C419.549 183.332 420.142 183.755 421.327 184.094C422.512 184.263 423.952 184.517 425.645 184.856C427.508 185.025 429.286 185.11 430.979 185.11H431.487V194H360.113ZM519.371 194H447.997V185.11C449.521 185.11 451.214 185.025 453.077 184.856C454.94 184.687 456.464 184.433 457.649 184.094C459.004 183.755 459.681 183.332 459.681 182.824V98.242C459.681 93.5007 459.173 89.6907 458.157 86.812C457.31 83.764 455.786 81.5627 453.585 80.208C451.553 78.684 448.844 77.922 445.457 77.922C441.562 77.922 437.837 79.0227 434.281 81.224C430.725 83.256 427.508 86.1347 424.629 89.86C421.75 93.5853 419.126 97.9033 416.755 102.814L412.945 92.146C416.67 85.2033 420.904 79.2767 425.645 74.366C430.556 69.4553 436.144 65.6453 442.409 62.936C448.674 60.2267 455.702 58.872 463.491 58.872C472.127 58.872 479.662 60.5653 486.097 63.952C492.532 67.3387 497.442 72.2493 500.829 78.684C504.385 85.1187 506.163 93.162 506.163 102.814V177.744C506.163 179.776 506.671 181.3 507.687 182.316C508.872 183.332 510.396 184.094 512.259 184.602C514.291 184.941 516.492 185.11 518.863 185.11H519.371V194ZM571.711 13.66H658.579V23.058H656.293C652.398 23.058 649.012 23.566 646.133 24.582C643.254 25.4287 641.815 27.7147 641.815 31.44V134.564C641.815 146.248 640.122 156.069 636.735 164.028C633.348 171.987 628.607 178.421 622.511 183.332C616.584 188.073 609.472 191.46 601.175 193.492C592.878 195.524 583.818 196.54 573.997 196.54C564.684 196.54 556.302 195.693 548.851 194C541.4 192.137 534.881 189.851 529.293 187.142C523.874 184.433 519.472 181.723 516.085 179.014V147.264H552.407V184.856C550.206 184.009 548.428 183.078 547.073 182.062C545.888 180.877 545.041 179.776 544.533 178.76C544.025 177.744 543.856 176.897 544.025 176.22C544.364 175.373 545.041 174.781 546.057 174.442C547.073 176.305 548.682 178.083 550.883 179.776C553.084 181.3 555.624 182.485 558.503 183.332C561.551 184.179 564.768 184.602 568.155 184.602C573.574 184.602 578.061 183.417 581.617 181.046C585.173 178.675 587.882 174.442 589.745 168.346C591.608 162.25 592.539 153.529 592.539 142.184V31.44C592.539 28.9 591.777 27.0373 590.253 25.852C588.898 24.6667 586.951 23.9047 584.411 23.566C582.04 23.2273 579.246 23.058 576.029 23.058H571.711V13.66ZM711.353 61.412V157.17C711.353 161.911 711.861 165.806 712.877 168.854C714.063 171.902 715.671 174.103 717.703 175.458C719.735 176.813 722.275 177.49 725.323 177.49C729.049 177.49 732.52 176.559 735.737 174.696C739.124 172.664 742.257 169.87 745.135 166.314C748.014 162.758 750.639 158.44 753.009 153.36L758.851 158.694C755.465 166.822 751.231 173.765 746.151 179.522C741.241 185.11 735.483 189.343 728.879 192.222C722.445 195.101 715.248 196.54 707.289 196.54C698.653 196.54 691.118 194.847 684.683 191.46C678.418 188.073 673.592 183.163 670.205 176.728C666.819 170.124 665.125 162.081 665.125 152.598V79.446C665.125 76.7367 664.279 74.874 662.585 73.858C661.061 72.842 658.352 71.9107 654.457 71.064L651.663 70.556V61.412H711.353ZM796.951 61.412V177.49C796.951 179.183 797.375 180.538 798.221 181.554C799.068 182.57 800.338 183.332 802.031 183.84C803.894 184.179 806.011 184.433 808.381 184.602L810.159 184.856V194H753.517V165.044L750.469 166.314V79.446C750.469 76.7367 749.284 74.7893 746.913 73.604C744.712 72.4187 741.664 71.572 737.769 71.064L733.451 70.556V61.412H796.951ZM807.193 194V185.11H807.447C809.817 185.11 811.934 184.941 813.797 184.602C815.829 184.094 817.437 183.332 818.623 182.316C819.808 181.3 820.401 179.776 820.401 177.744V79.446C820.401 77.5833 819.977 76.144 819.131 75.128C818.453 74.112 817.353 73.35 815.829 72.842C814.305 72.1647 812.273 71.572 809.733 71.064L807.193 70.556V61.412H863.835V88.844L866.629 89.86V182.824C866.629 183.332 867.221 183.755 868.407 184.094C869.592 184.263 871.031 184.517 872.725 184.856C874.587 185.025 876.365 185.11 878.059 185.11H878.567V194H807.193ZM966.451 194H895.077V185.11C896.601 185.11 898.294 185.025 900.157 184.856C902.019 184.687 903.543 184.433 904.729 184.094C906.083 183.755 906.761 183.332 906.761 182.824V98.242C906.761 93.5007 906.253 89.6907 905.237 86.812C904.39 83.764 902.866 81.5627 900.665 80.208C898.633 78.684 895.923 77.922 892.537 77.922C888.642 77.922 884.917 79.0227 881.361 81.224C877.805 83.256 874.587 86.1347 871.709 89.86C868.83 93.5853 866.205 97.9033 863.835 102.814L860.025 92.146C863.75 85.2033 867.983 79.2767 872.725 74.366C877.635 69.4553 883.223 65.6453 889.489 62.936C895.754 60.2267 902.781 58.872 910.571 58.872C919.207 58.872 926.742 60.5653 933.177 63.952C939.611 67.3387 944.522 72.2493 947.909 78.684C951.465 85.1187 953.243 93.162 953.243 102.814V177.744C953.243 179.776 953.751 181.3 954.767 182.316C955.952 183.332 957.476 184.094 959.339 184.602C961.371 184.941 963.572 185.11 965.943 185.11H966.451V194ZM999.233 42.616C991.443 42.616 985.263 40.7533 980.691 37.028C976.119 33.3027 973.833 28.138 973.833 21.534C973.833 14.93 976.119 9.84999 980.691 6.29399C985.263 2.56866 991.443 0.705991 999.233 0.705991C1006.85 0.705991 1012.86 2.56866 1017.27 6.29399C1021.84 9.84999 1024.12 14.93 1024.12 21.534C1024.12 28.138 1021.84 33.3027 1017.27 37.028C1012.86 40.7533 1006.85 42.616 999.233 42.616ZM1022.6 61.412V177.744C1022.6 180.792 1023.87 182.824 1026.41 183.84C1028.95 184.687 1032 185.11 1035.55 185.11H1035.81V194H963.165V185.11H963.419C967.144 185.11 970.192 184.687 972.563 183.84C975.103 182.824 976.373 180.792 976.373 177.744V79.446C976.373 76.7367 975.526 74.874 973.833 73.858C972.139 72.842 969.43 71.9107 965.705 71.064L963.165 70.556V61.412H1022.6ZM1182.67 127.96C1182.67 141.507 1179.62 153.445 1173.53 163.774C1167.43 174.103 1158.88 182.147 1147.87 187.904C1136.87 193.661 1123.74 196.54 1108.5 196.54C1093.6 196.54 1080.56 193.661 1069.39 187.904C1058.21 182.147 1049.57 174.103 1043.48 163.774C1037.55 153.445 1034.59 141.507 1034.59 127.96C1034.59 117.631 1036.28 108.317 1039.67 100.02C1043.22 91.5533 1048.22 84.272 1054.65 78.176C1061.26 72.08 1069.05 67.3387 1078.02 63.952C1087.17 60.5653 1097.33 58.872 1108.5 58.872C1119.85 58.872 1130.01 60.5653 1138.98 63.952C1148.13 67.1693 1155.92 71.9107 1162.35 78.176C1168.95 84.272 1173.95 91.5533 1177.34 100.02C1180.89 108.317 1182.67 117.631 1182.67 127.96ZM1082.34 127.96C1082.34 141.507 1083.27 152.598 1085.13 161.234C1087.17 169.701 1090.13 175.881 1094.02 179.776C1097.92 183.671 1102.74 185.618 1108.5 185.618C1114.43 185.618 1119.34 183.671 1123.23 179.776C1127.13 175.881 1130.01 169.701 1131.87 161.234C1133.9 152.598 1134.92 141.422 1134.92 127.706C1134.92 113.99 1133.9 102.899 1131.87 94.432C1130.01 85.796 1127.13 79.5307 1123.23 75.636C1119.34 71.7413 1114.43 69.794 1108.5 69.794C1102.74 69.794 1097.92 71.826 1094.02 75.89C1090.13 79.7847 1087.17 85.9653 1085.13 94.432C1083.27 102.899 1082.34 114.075 1082.34 127.96ZM1285.95 60.904V99.004C1284.6 98.496 1283.07 98.1573 1281.38 97.988C1279.69 97.6493 1277.82 97.3953 1275.79 97.226C1273.93 97.0567 1272.07 96.972 1270.2 96.972C1266.65 96.972 1263.26 97.3107 1260.04 97.988C1257 98.6653 1253.95 99.766 1250.9 101.29C1248.02 102.645 1245.4 104.423 1243.03 106.624C1240.83 108.825 1238.96 111.45 1237.44 114.498L1236.68 107.64C1239.22 98.6653 1242.18 90.5373 1245.57 83.256C1249.12 75.9747 1253.44 70.2173 1258.52 65.984C1263.77 61.7507 1269.87 59.634 1276.81 59.634C1279.01 59.634 1280.87 59.8033 1282.4 60.142C1283.92 60.3113 1285.11 60.5653 1285.95 60.904ZM1183.08 194V185.11H1183.34C1186.89 185.11 1189.94 184.687 1192.48 183.84C1195.02 182.824 1196.29 180.792 1196.29 177.744V79.446C1196.29 77.5833 1195.87 76.144 1195.02 75.128C1194.34 74.112 1193.24 73.35 1191.72 72.842C1190.19 72.1647 1188.16 71.572 1185.62 71.064L1183.08 70.556V61.412H1239.72V103.83L1242.52 103.068V182.824C1242.52 183.332 1243.28 183.755 1244.8 184.094C1246.33 184.263 1248.19 184.517 1250.39 184.856C1252.59 185.025 1254.8 185.11 1257 185.11H1261.06V194H1183.08Z" fill="white"/>
</svg>
