<svg width="80" height="23" viewBox="0 0 80 23" fill="none" xmlns="http://www.w3.org/2000/svg">
<path d="M0 17.5464V0.948453H7.40348C8.48215 0.948453 9.43822 1.18556 10.2717 1.65979C11.1215 2.13402 11.7917 2.78213 12.282 3.60412C12.7886 4.42611 13.0419 5.35085 13.0419 6.37835C13.0419 7.45327 12.7886 8.41753 12.282 9.27114C11.7917 10.1089 11.1215 10.7729 10.2717 11.2629C9.43822 11.7529 8.48215 11.9979 7.40348 11.9979H4.16753V17.5464H0ZM4.09398 8.46495H6.81513C7.17468 8.46495 7.50154 8.37801 7.79573 8.20412C8.08991 8.03024 8.32688 7.79312 8.50666 7.49279C8.68642 7.19244 8.77632 6.84467 8.77632 6.44948C8.77632 6.03849 8.68642 5.69073 8.50666 5.40618C8.32688 5.12165 8.08991 4.90034 7.79573 4.74227C7.50154 4.5842 7.17468 4.50515 6.81513 4.50515H4.09398V8.46495ZM14.5889 17.5464V4.95567H18.3152L18.4868 9.05773L17.7513 8.27526C17.9475 7.59554 18.2662 6.98694 18.7075 6.44948C19.1652 5.91203 19.6963 5.48523 20.3009 5.16907C20.9058 4.85291 21.5512 4.69485 22.2376 4.69485C22.5318 4.69485 22.8014 4.71856 23.0466 4.76598C23.3082 4.81341 23.5451 4.86873 23.7575 4.93196L22.6789 9.12886C22.4992 9.01822 22.254 8.93127 21.9435 8.86804C21.6492 8.789 21.3387 8.74948 21.0118 8.74948C20.6524 8.74948 20.3174 8.81271 20.0068 8.93918C19.6963 9.04982 19.4348 9.2158 19.2222 9.43712C19.0099 9.65842 18.8382 9.91925 18.7075 10.2196C18.5931 10.5199 18.5359 10.8598 18.5359 11.2392V17.5464H14.5889ZM30.0975 17.7835C28.7412 17.7835 27.5316 17.4989 26.4693 16.9299C25.4233 16.3608 24.5899 15.5863 23.9688 14.6062C23.3642 13.6261 23.0617 12.5038 23.0617 11.2392C23.0617 9.97456 23.3642 8.85224 23.9688 7.87217C24.5899 6.89209 25.4233 6.11753 26.4693 5.54845C27.5316 4.97938 28.7412 4.69485 30.0975 4.69485C31.454 4.69485 32.6552 4.97938 33.7012 5.54845C34.7635 6.11753 35.597 6.89209 36.2018 7.87217C36.8065 8.85224 37.1087 9.97456 37.1087 11.2392C37.1087 12.5038 36.8065 13.6261 36.2018 14.6062C35.597 15.5863 34.7635 16.3608 33.7012 16.9299C32.6552 17.4989 31.454 17.7835 30.0975 17.7835ZM30.0975 14.5114C30.6859 14.5114 31.2089 14.3691 31.6664 14.0845C32.1242 13.8 32.4836 13.4127 32.7451 12.9227C33.0067 12.4327 33.1293 11.8715 33.1129 11.2392C33.1293 10.6069 33.0067 10.0457 32.7451 9.55567C32.4836 9.04982 32.1242 8.65464 31.6664 8.37011C31.2089 8.08557 30.6859 7.9433 30.0975 7.9433C29.5092 7.9433 28.9781 8.08557 28.504 8.37011C28.0465 8.65464 27.687 9.04982 27.4254 9.55567C27.1639 10.0457 27.0413 10.6069 27.0576 11.2392C27.0413 11.8715 27.1639 12.4327 27.4254 12.9227C27.687 13.4127 28.0465 13.8 28.504 14.0845C28.9781 14.3691 29.5092 14.5114 30.0975 14.5114ZM38.4235 17.5464V4.95567H42.1497L42.2723 7.23196L41.7575 7.25567C41.9535 6.84467 42.1987 6.4811 42.4929 6.16495C42.8034 5.84879 43.1466 5.58797 43.5225 5.38247C43.9147 5.16117 44.3151 4.99518 44.7237 4.88453C45.1486 4.77389 45.5736 4.71856 45.9986 4.71856C46.6359 4.71856 47.2161 4.81341 47.7391 5.00309C48.262 5.19279 48.7197 5.50103 49.1119 5.92783C49.5041 6.33883 49.8147 6.9 50.0435 7.61135L49.4306 7.56392L49.6267 7.18453C49.8391 6.80515 50.1088 6.46529 50.4357 6.16495C50.779 5.84879 51.1547 5.58797 51.5634 5.38247C51.9719 5.16117 52.3969 4.99518 52.8381 4.88453C53.2795 4.77389 53.7043 4.71856 54.113 4.71856C55.1426 4.71856 56.0005 4.91615 56.687 5.31134C57.3735 5.69073 57.8882 6.2677 58.2315 7.04227C58.5909 7.81683 58.7707 8.75739 58.7707 9.86392V17.5464H54.8239V10.1722C54.8239 9.66632 54.7504 9.24742 54.6033 8.91547C54.4561 8.5835 54.2355 8.33849 53.9414 8.18041C53.6635 8.00653 53.312 7.91959 52.8872 7.91959C52.544 7.91959 52.2253 7.97492 51.9312 8.08557C51.6533 8.19621 51.4081 8.34639 51.1957 8.53609C50.9996 8.72577 50.8443 8.94709 50.7299 9.2C50.6155 9.45292 50.5582 9.73746 50.5582 10.0536V17.5464H46.6114V10.1485C46.6114 9.67423 46.5379 9.27114 46.3908 8.93918C46.2437 8.60721 46.023 8.3543 45.7289 8.18041C45.4347 8.00653 45.0915 7.91959 44.6993 7.91959C44.3561 7.91959 44.0374 7.97492 43.7431 8.08557C43.4653 8.19621 43.2202 8.34639 43.0077 8.53609C42.8116 8.72577 42.6563 8.94709 42.5419 9.2C42.4274 9.45292 42.3703 9.72956 42.3703 10.0299V17.5464H38.4235ZM60.8278 17.5464V0H64.7502V17.5464H60.8278ZM68.3064 23L71.2728 16.2423L71.3218 18.1866L65.0459 4.95567H69.4832L72.2288 11.2866C72.3759 11.6027 72.5147 11.9426 72.6456 12.3062C72.7763 12.6698 72.8744 13.0176 72.9397 13.3495L72.4004 13.6577C72.4984 13.4206 72.6047 13.1282 72.7191 12.7804C72.8499 12.4168 72.9887 12.0295 73.1359 11.6185L75.5383 4.95567H80L74.4596 17.5464L72.2043 23H68.3064Z" fill="white"/>
</svg>
