<svg width="830" height="247" viewBox="0 0 830 247" fill="none" xmlns="http://www.w3.org/2000/svg">
<path d="M0.583447 188V10.2H77.2914C88.4675 10.2 98.3735 12.74 107.009 17.82C115.815 22.9 122.757 29.8427 127.837 38.648C133.087 47.4533 135.711 57.3593 135.711 68.366C135.711 79.8807 133.087 90.21 127.837 99.354C122.757 108.329 115.815 115.441 107.009 120.69C98.3735 125.939 88.4675 128.564 77.2914 128.564H43.7634V188H0.583447ZM43.0015 90.718H71.1955C74.9208 90.718 78.3074 89.7867 81.3554 87.924C84.4035 86.0613 86.8588 83.5213 88.7215 80.304C90.5841 77.0867 91.5154 73.3613 91.5154 69.128C91.5154 64.7253 90.5841 61 88.7215 57.952C86.8588 54.904 84.4035 52.5333 81.3554 50.84C78.3074 49.1467 74.9208 48.3 71.1955 48.3H43.0015V90.718ZM151.741 188V53.126H190.349L192.127 97.068L184.507 88.686C186.539 81.4047 189.841 74.8853 194.413 69.128C199.155 63.3707 204.658 58.7987 210.923 55.412C217.189 52.0253 223.877 50.332 230.989 50.332C234.037 50.332 236.831 50.586 239.371 51.094C242.081 51.602 244.536 52.1947 246.737 52.872L235.561 97.83C233.699 96.6447 231.159 95.7133 227.941 95.036C224.893 94.1893 221.676 93.766 218.289 93.766C214.564 93.766 211.093 94.4433 207.875 95.798C204.658 96.9833 201.949 98.7613 199.747 101.132C197.546 103.503 195.768 106.297 194.413 109.514C193.228 112.731 192.635 116.372 192.635 120.436V188H151.741ZM312.426 190.54C298.371 190.54 285.841 187.492 274.834 181.396C263.997 175.3 255.361 167.003 248.926 156.504C242.661 146.005 239.528 133.983 239.528 120.436C239.528 106.889 242.661 94.8667 248.926 84.368C255.361 73.8693 263.997 65.572 274.834 59.476C285.841 53.38 298.371 50.332 312.426 50.332C326.481 50.332 338.927 53.38 349.764 59.476C360.771 65.572 369.407 73.8693 375.672 84.368C381.937 94.8667 385.07 106.889 385.07 120.436C385.07 133.983 381.937 146.005 375.672 156.504C369.407 167.003 360.771 175.3 349.764 181.396C338.927 187.492 326.481 190.54 312.426 190.54ZM312.426 155.488C318.522 155.488 323.941 153.964 328.682 150.916C333.423 147.868 337.149 143.719 339.858 138.47C342.567 133.221 343.837 127.209 343.668 120.436C343.837 113.663 342.567 107.651 339.858 102.402C337.149 96.9833 333.423 92.75 328.682 89.702C323.941 86.654 318.522 85.13 312.426 85.13C306.33 85.13 300.827 86.654 295.916 89.702C291.175 92.75 287.449 96.9833 284.74 102.402C282.031 107.651 280.761 113.663 280.93 120.436C280.761 127.209 282.031 133.221 284.74 138.47C287.449 143.719 291.175 147.868 295.916 150.916C300.827 153.964 306.33 155.488 312.426 155.488ZM398.691 188V53.126H437.299L438.569 77.51L433.235 77.764C435.267 73.3613 437.807 69.4667 440.855 66.08C444.072 62.6933 447.628 59.8993 451.523 57.698C455.587 55.3273 459.735 53.5493 463.969 52.364C468.371 51.1787 472.774 50.586 477.177 50.586C483.781 50.586 489.792 51.602 495.211 53.634C500.629 55.666 505.371 58.968 509.435 63.54C513.499 67.9427 516.716 73.954 519.087 81.574L512.737 81.066L514.769 77.002C516.97 72.938 519.764 69.2973 523.151 66.08C526.707 62.6933 530.601 59.8993 534.835 57.698C539.068 55.3273 543.471 53.5493 548.043 52.364C552.615 51.1787 557.017 50.586 561.251 50.586C571.919 50.586 580.809 52.7027 587.921 56.936C595.033 61 600.367 67.1807 603.923 75.478C607.648 83.7753 609.511 93.8507 609.511 105.704V188H568.617V109.006C568.617 103.587 567.855 99.1 566.331 95.544C564.807 91.988 562.521 89.3633 559.473 87.67C556.594 85.8073 552.953 84.876 548.551 84.876C544.995 84.876 541.693 85.4687 538.645 86.654C535.766 87.8393 533.226 89.448 531.025 91.48C528.993 93.512 527.384 95.8827 526.199 98.592C525.013 101.301 524.421 104.349 524.421 107.736V188H483.527V108.752C483.527 103.672 482.765 99.354 481.241 95.798C479.717 92.242 477.431 89.5327 474.383 87.67C471.335 85.8073 467.779 84.876 463.715 84.876C460.159 84.876 456.857 85.4687 453.809 86.654C450.93 87.8393 448.39 89.448 446.189 91.48C444.157 93.512 442.548 95.8827 441.363 98.592C440.177 101.301 439.585 104.265 439.585 107.482V188H398.691ZM630.825 188V0.0399976H671.465V188H630.825ZM708.311 246.42L739.045 174.03L739.553 194.858L674.529 53.126H720.503L748.951 120.944C750.475 124.331 751.914 127.971 753.269 131.866C754.623 135.761 755.639 139.486 756.317 143.042L750.729 146.344C751.745 143.804 752.845 140.671 754.031 136.946C755.385 133.051 756.825 128.903 758.349 124.5L783.241 53.126H829.469L772.065 188L748.697 246.42H708.311Z" fill="black"/>
</svg>
