<svg width="1080" height="1080" viewBox="0 0 1080 1080" fill="none" xmlns="http://www.w3.org/2000/svg">
<g clip-path="url(#clip0_580_10)">
<rect width="1080" height="1080" rx="100" fill="#70FF00"/>
<path d="M228.144 525V253.4H345.32C362.392 253.4 377.524 257.28 390.716 265.04C404.167 272.8 414.772 283.405 422.532 296.856C430.551 310.307 434.56 325.439 434.56 342.252C434.56 359.841 430.551 375.62 422.532 389.588C414.772 403.297 404.167 414.161 390.716 422.18C377.524 430.199 362.392 434.208 345.32 434.208H294.104V525H228.144ZM292.94 376.396H336.008C341.699 376.396 346.872 374.973 351.528 372.128C356.184 369.283 359.935 365.403 362.78 360.488C365.625 355.573 367.048 349.883 367.048 343.416C367.048 336.691 365.625 331 362.78 326.344C359.935 321.688 356.184 318.067 351.528 315.48C346.872 312.893 341.699 311.6 336.008 311.6H292.94V376.396ZM459.046 525V318.972H518.022L520.738 386.096L509.098 373.292C512.202 362.169 517.246 352.211 524.23 343.416C531.473 334.621 539.88 327.637 549.45 322.464C559.021 317.291 569.238 314.704 580.102 314.704C584.758 314.704 589.026 315.092 592.906 315.868C597.045 316.644 600.796 317.549 604.158 318.584L587.086 387.26C584.241 385.449 580.361 384.027 575.446 382.992C570.79 381.699 565.876 381.052 560.702 381.052C555.012 381.052 549.709 382.087 544.794 384.156C539.88 385.967 535.741 388.683 532.378 392.304C529.016 395.925 526.3 400.193 524.23 405.108C522.42 410.023 521.514 415.584 521.514 421.792V525H459.046ZM704.502 528.88C683.033 528.88 663.891 524.224 647.078 514.912C630.523 505.6 617.331 492.925 607.502 476.888C597.931 460.851 593.146 442.485 593.146 421.792C593.146 401.099 597.931 382.733 607.502 366.696C617.331 350.659 630.523 337.984 647.078 328.672C663.891 319.36 683.033 314.704 704.502 314.704C725.971 314.704 744.983 319.36 761.538 328.672C778.351 337.984 791.543 350.659 801.114 366.696C810.685 382.733 815.47 401.099 815.47 421.792C815.47 442.485 810.685 460.851 801.114 476.888C791.543 492.925 778.351 505.6 761.538 514.912C744.983 524.224 725.971 528.88 704.502 528.88ZM704.502 475.336C713.814 475.336 722.091 473.008 729.334 468.352C736.577 463.696 742.267 457.359 746.406 449.34C750.545 441.321 752.485 432.139 752.226 421.792C752.485 411.445 750.545 402.263 746.406 394.244C742.267 385.967 736.577 379.5 729.334 374.844C722.091 370.188 713.814 367.86 704.502 367.86C695.19 367.86 686.783 370.188 679.282 374.844C672.039 379.5 666.349 385.967 662.21 394.244C658.071 402.263 656.131 411.445 656.39 421.792C656.131 432.139 658.071 441.321 662.21 449.34C666.349 457.359 672.039 463.696 679.282 468.352C686.783 473.008 695.19 475.336 704.502 475.336Z" fill="black"/>
<path d="M221.16 829V622.972H280.136L282.076 660.22L273.928 660.608C277.032 653.883 280.912 647.933 285.568 642.76C290.483 637.587 295.915 633.319 301.864 629.956C308.072 626.335 314.409 623.619 320.876 621.808C327.601 619.997 334.327 619.092 341.052 619.092C351.14 619.092 360.323 620.644 368.6 623.748C376.877 626.852 384.12 631.896 390.328 638.88C396.536 645.605 401.451 654.788 405.072 666.428L395.372 665.652L398.476 659.444C401.839 653.236 406.107 647.675 411.28 642.76C416.712 637.587 422.661 633.319 429.128 629.956C435.595 626.335 442.32 623.619 449.304 621.808C456.288 619.997 463.013 619.092 469.48 619.092C485.776 619.092 499.356 622.325 510.22 628.792C521.084 635 529.232 644.441 534.664 657.116C540.355 669.791 543.2 685.181 543.2 703.288V829H480.732V708.332C480.732 700.055 479.568 693.2 477.24 687.768C474.912 682.336 471.42 678.327 466.764 675.74C462.367 672.895 456.805 671.472 450.08 671.472C444.648 671.472 439.604 672.377 434.948 674.188C430.551 675.999 426.671 678.456 423.308 681.56C420.204 684.664 417.747 688.285 415.936 692.424C414.125 696.563 413.22 701.219 413.22 706.392V829H350.752V707.944C350.752 700.184 349.588 693.588 347.26 688.156C344.932 682.724 341.44 678.585 336.784 675.74C332.128 672.895 326.696 671.472 320.488 671.472C315.056 671.472 310.012 672.377 305.356 674.188C300.959 675.999 297.079 678.456 293.716 681.56C290.612 684.664 288.155 688.285 286.344 692.424C284.533 696.563 283.628 701.089 283.628 706.004V829H221.16ZM575.759 829V541.88H637.839V829H575.759ZM694.123 918.24L741.071 807.66L741.847 839.476L642.519 622.972H712.747L756.203 726.568C758.531 731.741 760.73 737.303 762.799 743.252C764.868 749.201 766.42 754.892 767.455 760.324L758.919 765.368C760.471 761.488 762.152 756.703 763.963 751.012C766.032 745.063 768.231 738.725 770.559 732L808.583 622.972H879.199L791.511 829L755.815 918.24H694.123Z" fill="black"/>
</g>
<defs>
<clipPath id="clip0_580_10">
<rect width="1080" height="1080" fill="white"/>
</clipPath>
</defs>
</svg>
